<?xml version="1.0" encoding="UTF-8"?>
<svg xmlns="http://www.w3.org/2000/svg" height="442pt" viewBox="0 -109 442.256 442" width="442pt">
   <path fill="#14b1aa" d="m221.128906 40.128906c-39.765625 0-72 32.234375-72 72 0 39.761719 32.234375 72 72 72 39.761719 0 72-32.238281 72-72-.046875-39.746094-32.253906-71.957031-72-72zm0 112c-22.09375 0-40-17.910156-40-40 0-22.09375 17.90625-40 40-40 22.089844 0 40 17.90625 40 40-.027344 22.078125-17.921875 39.972656-40 40zm0 0" />
   <path fill="#463177" d="m245.128906 112.128906c0 13.253906-10.746094 24-24 24s-24-10.746094-24-24 10.746094-24 24-24 24 10.746094 24 24zm0 0" />
   <path fill="#463177" d="m15.902344 127.847656c7.652344-1.320312 13.242187-7.957031 13.242187-15.71875 0-7.765625-5.589843-14.402344-13.242187-15.722656-6.980469 6.546875-12.382813 12-15.902344 15.722656 3.527344 3.703125 8.921875 9.175782 15.902344 15.71875zm0 0" />
   <path fill="#f79719" d="m221.128906.128906c-80.457031 0-151.960937 49.734375-192.050781 84.421875 9.917969 5.640625 16.046875 16.167969 16.046875 27.578125 0 11.40625-6.128906 21.9375-16.046875 27.574219 40.089844 34.6875 111.59375 84.425781 192.050781 84.425781 107.742188 0 199.464844-89.207031 221.128906-112-21.664062-22.792968-113.386718-112-221.128906-112zm0 200c-48.601562 0-88-39.398437-88-88 0-48.601562 39.398438-88 88-88 48.601563 0 88 39.398438 88 88-.058594 48.578125-39.421875 87.941406-88 88zm0 0" />
</svg>