<svg xmlns="http://www.w3.org/2000/svg" viewBox="0 0 225.7 703.86" preserveAspectRatio="none" height="100%" width="150">
  <title>video-shape</title>
  <path d="M845.7,74.14H708.25l0,.18c9.26.27,18.52.72,27.77,1.51s18.25,1.79,26.93,5c12.2,4.51,15.3,11.83,9.79,23.47-6.15,13-15.82,23.43-25.48,33.82-11.71,12.59-24.83,23.85-34.69,38.2-12.18,17.74-14,36.37-6.37,56.24,3.07,8,6.41,15.85,8.42,24.33,3.44,14.56-2.27,25.05-13,33.49a198.23,198.23,0,0,1-29.58,19.77,63.19,63.19,0,0,0-6.31,4c-20.52,14.16-23.67,27.24-11.64,48.93,4.45,8,9.46,15.71,13.79,23.79,10.65,19.83,8.71,38.46-6,55.59-9.73,11.33-17,23.67-14.32,39.32,2.05,12,7.64,22.44,15.5,31.69s15.55,18.15,23.1,27.41a102.85,102.85,0,0,1,9.05,13c11.43,19.52,8.07,34.4-10.39,47.44a197.69,197.69,0,0,1-28.93,16.51c-34.9,16.73-40.55,40.59-25.21,75.81,6.67,15.31,17.13,28.57,25.68,42.87,13.48,22.55,8.64,33.21-17.44,38.16-6.13,1.16-12.71,2.8-18.92,3.29H845.69Q845.54,426.07,845.7,74.14Z" transform="translate(-620 -74.14)" style="fill: #393B4A"/>
</svg>
